<svg xmlns="http://www.w3.org/2000/svg" xmlns:xlink="http://www.w3.org/1999/xlink" version="1.1" x="0px" y="0px" viewBox="0 0 52 52" style="enable-background:new 0 0 52 52;" xml:space="preserve"><style type="text/css">
	.st0{fill:none;stroke:#000000;stroke-width:2;stroke-linecap:round;stroke-linejoin:round;stroke-miterlimit:10;}
	.st1{fill:#FFFFFF;}
	.st2{fill:#2A3D4F;stroke:#000000;stroke-width:0;stroke-miterlimit:10;}
	.st3{fill:none;stroke:#000000;stroke-width:2;stroke-miterlimit:10;}
</style><g><g><path d="M47,43H12V15h35c1.7,0,3,1.3,3,3v22C50,41.7,48.7,43,47,43z M14,41h33c0.6,0,1-0.4,1-1V18c0-0.6-0.4-1-1-1H14V41z"></path></g><g><path d="M14,43H5c-1.7,0-3-1.3-3-3V14c0-1.7,1.3-3,3-3h6c1.7,0,3,1.3,3,3V43z M5,13c-0.6,0-1,0.4-1,1v26c0,0.6,0.4,1,1,1h7V14    c0-0.6-0.4-1-1-1H5z"></path></g><g><path d="M40.3,17H21.7l1.6-5.8C23.6,9.9,24.8,9,26.2,9h9.6c1.3,0,2.5,0.9,2.9,2.2L40.3,17z M24.3,15h13.4l-0.9-3.3    c-0.1-0.4-0.5-0.7-1-0.7h-9.6c-0.4,0-0.8,0.3-1,0.7L24.3,15z"></path></g><g><path d="M31,38c-5,0-9-4-9-9s4-9,9-9s9,4,9,9S36,38,31,38z M31,22c-3.9,0-7,3.1-7,7s3.1,7,7,7s7-3.1,7-7S34.9,22,31,22z"></path></g><g><path d="M31,33c-2.2,0-4-1.8-4-4s1.8-4,4-4s4,1.8,4,4S33.2,33,31,33z M31,27c-1.1,0-2,0.9-2,2s0.9,2,2,2s2-0.9,2-2S32.1,27,31,27z    "></path></g><g><rect x="13" y="28" width="10" height="2"></rect></g><g><rect x="39" y="28" width="10" height="2"></rect></g><g><path d="M8,13c-0.6,0-1-0.4-1-1v-2c0-0.6,0.4-1,1-1s1,0.4,1,1v2C9,12.6,8.6,13,8,13z"></path></g></g></svg>