<?xml version="1.0" encoding="utf-8"?>
<!-- Generator: Adobe Illustrator 22.0.1, SVG Export Plug-In . SVG Version: 6.00 Build 0)  -->
<svg version="1.1" id="Layer_1" xmlns="http://www.w3.org/2000/svg" xmlns:xlink="http://www.w3.org/1999/xlink" x="0px" y="0px"
	 viewBox="0 0 47.9 48" style="enable-background:new 0 0 47.9 48;" xml:space="preserve">
<style type="text/css">
	.st0{fill:#FFFFFF;}
</style>
<g>
	<g>
		<path class="st0" d="M23.9,47c-1.1,0-2.3-0.1-3.4-0.4c-0.5-0.1-0.9-0.7-0.7-1.2c0.1-0.5,0.7-0.9,1.2-0.7c1.8,0.5,3.8,0.5,5.6,0
			c0.5-0.1,1.1,0.2,1.2,0.7s-0.2,1.1-0.7,1.2C26.1,46.9,25,47,23.9,47z"/>
	</g>
	<g>
		<path class="st0" d="M10.9,30c-0.5,0-1-0.4-1-0.9c0-0.3,0-0.7,0-1c0-3.7,1.6-7.3,4.4-9.8c0.4-0.4,1-0.3,1.4,0.1s0.3,1-0.1,1.4
			c-2.4,2.1-3.7,5.1-3.7,8.2c0,0.3,0,0.6,0,0.9C12,29.5,11.6,30,10.9,30C11,30,11,30,10.9,30z"/>
	</g>
	<g>
		<path class="st0" d="M36.9,30C36.8,30,36.8,30,36.9,30c-0.6,0-1-0.5-1-1.1c0-0.3,0-0.6,0-0.9c0-3.2-1.3-6.1-3.8-8.3
			c-0.4-0.4-0.4-1-0.1-1.4c0.4-0.4,1-0.4,1.4-0.1c2.8,2.5,4.4,6.1,4.4,9.8c0,0.3,0,0.7,0,1C37.8,29.6,37.4,30,36.9,30z"/>
	</g>
	<g>
		<path class="st0" d="M23.9,10c-2.8,0-5.1-2.2-5.1-5s2.3-5,5.1-5S29,2.2,29,5S26.7,10,23.9,10z M23.9,2c-1.7,0-3.1,1.3-3.1,3
			s1.4,3,3.1,3S27,6.7,27,5S25.6,2,23.9,2z"/>
	</g>
	<g>
		<path class="st0" d="M31.8,20H16c-1,0-1.9-0.4-2.4-1.2c-0.6-0.7-0.7-1.6-0.5-2.5C14.2,11.4,18.7,8,23.9,8s9.7,3.4,10.9,8.4
			c0.2,0.9,0,1.7-0.5,2.5C33.7,19.6,32.8,20,31.8,20z M23.9,10c-4.3,0-8,2.8-9,6.8c-0.1,0.3,0.1,0.6,0.2,0.7
			c0.2,0.3,0.5,0.4,0.9,0.4h15.9c0.3,0,0.7-0.2,0.9-0.4c0.1-0.1,0.3-0.4,0.2-0.7C31.9,12.8,28.2,10,23.9,10z"/>
	</g>
	<g>
		<path class="st0" d="M10.9,38c-2.8,0-5.1-2.2-5.1-5s2.3-5,5.1-5s5.1,2.2,5.1,5S13.7,38,10.9,38z M10.9,30c-1.7,0-3.1,1.3-3.1,3
			s1.4,3,3.1,3s3.1-1.3,3.1-3S12.6,30,10.9,30z"/>
	</g>
	<g>
		<path class="st0" d="M18.8,48H3c-1,0-1.9-0.4-2.4-1.2c-0.6-0.7-0.7-1.6-0.5-2.5C1.2,39.4,5.7,36,10.9,36s9.7,3.4,10.9,8.4
			c0.2,0.9,0,1.7-0.5,2.5C20.7,47.6,19.8,48,18.8,48z M10.9,38c-4.3,0-8,2.8-9,6.8c-0.1,0.3,0.1,0.6,0.2,0.7C2.3,45.8,2.6,46,3,46
			h15.9c0.3,0,0.7-0.2,0.9-0.4c0.1-0.1,0.3-0.4,0.2-0.7C18.9,40.8,15.2,38,10.9,38z"/>
	</g>
	<g>
		<path class="st0" d="M36.9,38c-2.8,0-5.1-2.2-5.1-5s2.3-5,5.1-5s5.1,2.2,5.1,5S39.7,38,36.9,38z M36.9,30c-1.7,0-3.1,1.3-3.1,3
			s1.4,3,3.1,3s3.1-1.3,3.1-3S38.6,30,36.9,30z"/>
	</g>
	<g>
		<path class="st0" d="M44.8,48H29c-1,0-1.9-0.4-2.4-1.2c-0.6-0.7-0.7-1.6-0.5-2.5c1.1-4.9,5.6-8.3,10.8-8.3s9.7,3.4,10.9,8.4
			c0.2,0.9,0,1.7-0.5,2.5C46.7,47.6,45.8,48,44.8,48z M36.9,38c-4.3,0-8,2.8-9,6.8c-0.1,0.3,0.1,0.6,0.2,0.7
			c0.2,0.3,0.5,0.4,0.9,0.4h15.9c0.3,0,0.7-0.2,0.9-0.4c0.1-0.1,0.3-0.4,0.2-0.7C44.9,40.8,41.2,38,36.9,38z"/>
	</g>
</g>
</svg>
