<?xml version="1.0" encoding="utf-8"?>
<!-- Generator: Adobe Illustrator 22.0.1, SVG Export Plug-In . SVG Version: 6.00 Build 0)  -->
<svg version="1.1" id="Layer_1" xmlns="http://www.w3.org/2000/svg" xmlns:xlink="http://www.w3.org/1999/xlink" x="0px" y="0px"
	 viewBox="0 0 52 52" style="enable-background:new 0 0 52 52;" xml:space="preserve">
<style type="text/css">
	.st0{fill:#FFFFFF;}
</style>
<g>
	<g>
		<path class="st0" d="M16,14c-3.3,0-6-2.7-6-6s2.7-6,6-6s6,2.7,6,6S19.3,14,16,14z M16,4c-2.2,0-4,1.8-4,4s1.8,4,4,4s4-1.8,4-4
			S18.2,4,16,4z"/>
	</g>
	<g>
		<path class="st0" d="M15.1,27H5c-0.9,0-1.8-0.4-2.3-1.1c-0.6-0.7-0.8-1.6-0.6-2.4C3.3,16.8,9.1,12,16,12c3.1,0,6,1,8.5,2.8
			c0.4,0.3,0.5,1,0.2,1.4c-0.3,0.4-1,0.5-1.4,0.2C21.2,14.8,18.7,14,16,14c-5.9,0-10.9,4.1-12,9.8c-0.1,0.4,0.1,0.6,0.2,0.8
			C4.4,24.9,4.7,25,5,25h10c0.6,0,1,0.4,1,1S15.6,27,15.1,27z"/>
	</g>
	<g>
		<path class="st0" d="M28.1,42.1c-3.7,0-7.3-1.5-9.9-4.1s-4.1-6.2-4.1-9.9s1.5-7.3,4.1-9.9c5.5-5.5,14.3-5.5,19.8,0l0,0
			c2.6,2.6,4.1,6.2,4.1,9.9S40.6,35.4,38,38C35.3,40.6,31.8,42.1,28.1,42.1z M28.1,16.1c-3.1,0-6.1,1.2-8.5,3.5
			c-2.3,2.3-3.5,5.3-3.5,8.5s1.2,6.2,3.5,8.5s5.3,3.5,8.5,3.5s6.2-1.2,8.5-3.5s3.5-5.3,3.5-8.5s-1.2-6.2-3.5-8.5
			C34.2,17.2,31.2,16.1,28.1,16.1z"/>
	</g>
	<g>
		<path class="st0" d="M28.1,38.1c-2.6,0-5.1-1-7.1-2.9c-3.9-3.9-3.9-10.2,0-14.1s10.2-3.9,14.1,0s3.9,10.2,0,14.1
			C33.2,37.1,30.6,38.1,28.1,38.1z M28.1,20.1c-2,0-4.1,0.8-5.7,2.3c-3.1,3.1-3.1,8.2,0,11.3c3.1,3.1,8.2,3.1,11.3,0s3.1-8.2,0-11.3
			C32.2,20.9,30.1,20.1,28.1,20.1z"/>
	</g>
	<g>
		<path class="st0" d="M44.5,50c-0.1,0-0.1,0-0.2,0c-0.9,0-1.6-0.5-2.2-1.1l-7.6-10.3l4-4l10.3,7.6c0.7,0.6,1.1,1.3,1.2,2.2
			c0,0.9-0.3,1.7-0.9,2.3l-2.5,2.5C46.1,49.7,45.3,50,44.5,50z M37.2,38.8l6.6,8.9c0.2,0.2,0.4,0.3,0.7,0.3s0.6-0.1,0.8-0.3l2.5-2.5
			c0.2-0.2,0.3-0.5,0.3-0.8s-0.1-0.5-0.4-0.7l-8.8-6.6L37.2,38.8z"/>
	</g>
</g>
</svg>
