<?xml version="1.0" encoding="utf-8"?>
<!-- Generator: Adobe Illustrator 22.0.1, SVG Export Plug-In . SVG Version: 6.00 Build 0)  -->
<svg version="1.1" id="Layer_1" xmlns="http://www.w3.org/2000/svg" xmlns:xlink="http://www.w3.org/1999/xlink" x="0px" y="0px"
	 viewBox="0 0 52 52" style="enable-background:new 0 0 52 52;" xml:space="preserve">
<style type="text/css">
	.st0{fill:#FFFFFF;}
</style>
<g>
	<g>
		<path class="st0" d="M16.8,30H6c-2.2,0-4-1.8-4-4v-1c0-7.2,5.8-13,13-13c2.9,0,5.7,1,8,2.8l0.9,0.7l-0.8,0.8C22.4,17,22,18,22,19
			c0,2.2,1.8,4,4,4v2c-3.5,0-6.9,1.7-8.9,4.6L16.8,30z M15,14C8.9,14,4,18.9,4,25v1c0,1.1,0.9,2,2,2h9.8c1.6-2.1,3.9-3.6,6.4-4.4
			C20.8,22.5,20,20.8,20,19c0-1.2,0.3-2.3,1-3.2C19.2,14.6,17.1,14,15,14z"/>
	</g>
	<g>
		<path class="st0" d="M28,25.1L26.9,25c-0.3,0-0.6,0-0.9,0v-0.9l0,0v-0.2l0,0V23c0.3,0,0.5,0,0.8-0.1l1.2-0.2v1.2V24V25.1z M26,24
			L26,24L26,24z"/>
	</g>
	<g>
		<path class="st0" d="M15,14c-3.3,0-6-2.7-6-6s2.7-6,6-6s6,2.7,6,6S18.3,14,15,14z M15,4c-2.2,0-4,1.8-4,4s1.8,4,4,4s4-1.8,4-4
			S17.2,4,15,4z"/>
	</g>
	<g>
		<path class="st0" d="M32,41H17c-2.2,0-4-1.8-4-4v-1c0-2.7,0.8-5.4,2.4-7.6C17.9,25,21.8,23,26,23c0.4,0,0.7,0,1.1,0
			c3,0.2,5.9,1.6,8.1,3.8c1.2,1.2,2.2,2.7,2.9,4.3l0.4,1l-1,0.3C34.2,33.5,32,36.6,32,40V41z M26,25c-3.5,0-6.9,1.7-8.9,4.6
			C15.7,31.5,15,33.7,15,36v1c0,1.1,0.9,2,2,2h13c0.3-3.5,2.5-6.6,5.7-8.1c-0.5-1-1.2-1.9-2-2.7c-1.9-1.9-4.3-3-6.9-3.2
			C26.6,25,26.3,25,26,25z"/>
	</g>
	<g>
		<path class="st0" d="M26,25c-3.3,0-6-2.7-6-6c0-1.6,0.6-3,1.7-4.1c1.1-1.2,2.7-1.9,4.3-1.9c3.3,0,6,2.7,6,6c0,2.9-2,5.4-4.9,5.9
			C26.8,25,26.4,25,26,25z M26,15c-1.1,0-2.1,0.4-2.9,1.2C22.4,17,22,18,22,19c0,2.2,1.8,4,4,4c0.3,0,0.5,0,0.8-0.1
			c1.9-0.4,3.2-2,3.2-3.9C30,16.8,28.2,15,26,15z"/>
	</g>
	<g>
		<path class="st0" d="M40,50c-5.5,0-10-4.5-10-10c0-4.3,2.7-8.1,6.8-9.5c1-0.4,2.1-0.5,3.2-0.5c5.5,0,10,4.5,10,10S45.5,50,40,50z
			 M40,32c-0.9,0-1.7,0.1-2.6,0.4C34.2,33.5,32,36.6,32,40c0,4.4,3.6,8,8,8s8-3.6,8-8S44.4,32,40,32z"/>
	</g>
	<g>
		<path class="st0" d="M40,45c-0.6,0-1-0.4-1-1v-8c0-0.6,0.4-1,1-1s1,0.4,1,1v8C41,44.6,40.6,45,40,45z"/>
	</g>
	<g>
		<path class="st0" d="M44,41h-8c-0.6,0-1-0.4-1-1s0.4-1,1-1h8c0.6,0,1,0.4,1,1S44.6,41,44,41z"/>
	</g>
</g>
</svg>
