<svg id="svg2" xmlns="http://www.w3.org/2000/svg" xmlns:xlink="http://www.w3.org/1999/xlink" viewBox="0 0 135.7 40" enable-background="new 0 0 135.7 40"><style>.st0{fill:none}.st5,.st7{fill:#fff}.st7{stroke:#fff;stroke-width:.16;stroke-miterlimit:10}</style><pattern y="40" width="124" height="48" patternUnits="userSpaceOnUse" id="pattern134" viewBox="0 -48 124 48" overflow="visible"><path class="st0" d="M0-48h124V0H0z"/><g id="g138_1_"><defs><path id="SVGID_1_" d="M0-48h124V0H0z"/></defs><clipPath id="SVGID_2_"><use xlink:href="#SVGID_1_" overflow="visible"/></clipPath><g id="g140_1_" clip-path="url(#SVGID_2_)"><g id="g142_1_"><path id="path144_1_" d="M29.6-20.7L18-14.1c-.6.4-1.2.3-1.6 0l-.1.1.1.1c.4.3 1 .4 1.6 0l11.6-6.8c.1.1 0 0 0 0z"/></g></g></g></pattern><pattern y="40" width="124" height="48" patternUnits="userSpaceOnUse" id="pattern182" viewBox="0 -48 124 48" overflow="visible"><path class="st0" d="M0-48h124V0H0z"/><g id="g186_1_"><defs><path id="SVGID_3_" d="M0-48h124V0H0z"/></defs><clipPath id="SVGID_4_"><use xlink:href="#SVGID_3_" overflow="visible"/></clipPath><g id="g188_1_" clip-path="url(#SVGID_4_)"><g id="g190_1_"><path id="path192_1_" d="M16.3-14.1c-.2-.2-.4-.6-.4-1.1v.1c0 .5.1.9.4 1.1v-.1z"/></g></g></g></pattern><pattern y="40" width="124" height="48" patternUnits="userSpaceOnUse" id="pattern230" viewBox="0 -48 124 48" overflow="visible"><path class="st0" d="M0-48h124V0H0z"/><g id="g234_1_"><defs><path id="SVGID_5_" d="M0-48h124V0H0z"/></defs><clipPath id="SVGID_6_"><use xlink:href="#SVGID_5_" overflow="visible"/></clipPath><g id="g236_1_" clip-path="url(#SVGID_6_)"><g id="g238_1_"><path id="path240_1_" d="M33.6-23l-4 2.3.1.1 3.9-2.2c.6-.3.8-.7.8-1.2 0 .4-.3.8-.8 1z"/></g></g></g></pattern><pattern y="40" width="124" height="48" patternUnits="userSpaceOnUse" id="pattern278" viewBox="0 -48 124 48" overflow="visible"><path class="st0" d="M0-48h124V0H0z"/><g id="g282_1_"><defs><path id="SVGID_7_" d="M0-48h124V0H0z"/></defs><clipPath id="SVGID_8_"><use xlink:href="#SVGID_7_" overflow="visible"/></clipPath><g id="g284_1_" clip-path="url(#SVGID_8_)"><g id="g286_1_"><path id="path288_1_" class="st5" d="M18-33.9L33.6-25c.5.3.8.7.8 1 0-.4-.3-.8-.8-1.2L18-34c-1.1-.6-2-.1-2 1.2v.1c0-1.3.9-1.8 2-1.2z"/></g></g></g></pattern><g id="g10" transform="matrix(1.25 0 0 -1.25 -9.425 49.85)"><g id="g12" transform="matrix(1.0024 0 0 .99073 -.297 0)"><path id="path14" d="M112 8H12c-2.2 0-4 1.8-4 4v24c0 2.2 1.8 4 4 4h100c2.2 0 4-1.8 4-4V12c0-2.2-1.8-4-4-4z"/><g id="g18" transform="matrix(1 0 0 -1 0 48)"><path id="path20" class="st7" d="M45.9 16.2c0 .7-.2 1.2-.6 1.6-.5.5-1 .7-1.8.7-.7 0-1.3-.2-1.8-.7-.5-.5-.7-1.1-.7-1.8s.2-1.3.7-1.8c.5-.5 1.1-.7 1.8-.7.3 0 .7.1 1 .2.3.1.6.3.8.5l-.4.4c-.3-.4-.8-.6-1.3-.6s-.9.2-1.3.5c-.4.4-.6.8-.6 1.4 0 .6.2 1 .6 1.4.4.4.8.5 1.3.5s1-.2 1.3-.5c.2-.2.4-.6.4-1h-1.7v-.6h2.3v.5z"/></g><g id="g22" transform="matrix(1 0 0 -1 0 48)"><path id="path24" class="st7" d="M49.6 14.2h-2.2v1.5h2v.6h-2v1.5h2.2v.6h-2.8v-4.8h2.8v.6z"/></g><g id="g26" transform="matrix(1 0 0 -1 0 48)"><path id="path28" class="st7" d="M52.2 18.4h-.6v-4.2h-1.3v-.6h3.3v.6h-1.3v4.2z"/></g><g id="g30" transform="matrix(1 0 0 -1 0 48)"><path id="path32" class="st7" d="M55.9 18.4v-4.8h.6v4.8h-.6z"/></g><g id="g34" transform="matrix(1 0 0 -1 0 48)"><path id="path36" class="st7" d="M59.3 18.4h-.6v-4.2h-1.3v-.6h3.3v.6h-1.3c-.1 0-.1 4.2-.1 4.2z"/></g><g id="g38" transform="matrix(1 0 0 -1 0 48)"><path id="path40" class="st7" d="M66.9 17.8c-.5.5-1.1.7-1.8.7s-1.3-.2-1.8-.7c-.5-.5-.7-1.1-.7-1.8s.2-1.3.7-1.8c.5-.5 1.1-.7 1.8-.7s1.3.2 1.8.7c.5.5.7 1.1.7 1.8s-.2 1.3-.7 1.8zm-3.1-.4c.4.4.8.5 1.3.5s.9-.2 1.3-.5c.4-.4.6-.8.6-1.4 0-.6-.2-1-.5-1.4-.4-.4-.8-.5-1.3-.5s-.9.2-1.3.5c-.4.4-.5.8-.5 1.4-.1.6.1 1 .4 1.4z"/></g><g id="g42" transform="matrix(1 0 0 -1 0 48)"><path id="path44" class="st7" d="M68.5 18.4v-4.8h.8l2.3 3.7v-3.7h.6v4.8h-.6l-2.4-3.9v3.9h-.7z"/></g><path id="path46" class="st5" d="M62.5 22.6c-1.9 0-3.4-1.4-3.4-3.4s1.5-3.4 3.4-3.4 3.4 1.4 3.4 3.4-1.5 3.4-3.4 3.4zm0-5.5c-1 0-1.9.9-1.9 2.1 0 1.2.9 2.1 1.9 2.1s1.9-.8 1.9-2.1c0-1.2-.9-2.1-1.9-2.1zm-7.4 5.5c-1.9 0-3.4-1.4-3.4-3.4s1.5-3.4 3.4-3.4 3.4 1.4 3.4 3.4-1.6 3.4-3.4 3.4zm0-5.5c-1 0-1.9.9-1.9 2.1 0 1.2.9 2.1 1.9 2.1 1 0 1.9-.8 1.9-2.1 0-1.2-.9-2.1-1.9-2.1zm-8.9 4.5v-1.4h3.5c-.1-.8-.4-1.4-.8-1.8-.5-.5-1.3-1.1-2.7-1.1-2.1 0-3.8 1.7-3.8 3.8s1.7 3.8 3.8 3.8c1.1 0 2-.4 2.6-1l1 1c-.9.8-2 1.5-3.6 1.5-2.9 0-5.4-2.4-5.4-5.3s2.4-5.3 5.4-5.3c1.6 0 2.8.5 3.7 1.5 1 1 1.2 2.3 1.2 3.4 0 .3 0 .6-.1.9h-4.8zm36.2-1.2c-.3.8-1.1 2.2-2.9 2.2-1.8 0-3.2-1.4-3.2-3.4 0-1.9 1.4-3.4 3.4-3.4 1.6 0 2.5 1 2.8 1.5l-1.2.8c-.4-.6-.9-.9-1.7-.9-.8 0-1.3.3-1.6 1l4.6 1.9c0-.1-.2.3-.2.3zm-4.6-1.1c0 1.3 1 2 1.8 2 .6 0 1.1-.3 1.3-.7-.1 0-3.1-1.3-3.1-1.3zM74.1 16h1.5v10h-1.5V16zm-2.4 5.8c-.4.4-1 .8-1.8.8-1.7 0-3.3-1.5-3.3-3.4s1.6-3.4 3.3-3.4c.8 0 1.5.4 1.8.8h.1v-.5c0-1.3-.7-2-1.8-2-.9 0-1.5.7-1.7 1.2l-1.3-.5c.4-.9 1.4-2 3-2 1.8 0 3.2 1 3.2 3.5v6.1h-1.4v-.6zm-1.8-4.7c-1 0-1.9.9-1.9 2.1 0 1.2.9 2.1 1.9 2.1 1 0 1.8-.9 1.8-2.1.1-1.2-.7-2.1-1.8-2.1zM89.4 26h-3.6V16h1.5v3.8h2.1c1.7 0 3.3 1.2 3.3 3.1 0 1.9-1.6 3.1-3.3 3.1zm.1-4.8h-2.1v3.4h2.1c1.1 0 1.8-.9 1.8-1.7-.1-.8-.7-1.7-1.8-1.7zm9.2 1.4c-1.1 0-2.2-.5-2.7-1.5l1.3-.6c.3.6.8.7 1.4.7.8 0 1.6-.5 1.6-1.3v-.1c-.3.2-.8.4-1.6.4-1.4 0-2.9-.8-2.9-2.2 0-1.3 1.2-2.2 2.5-2.2 1 0 1.6.5 1.9 1h.1V16h1.4v3.8c0 1.8-1.3 2.8-3 2.8zm-.2-5.5c-.5 0-1.2.2-1.2.8 0 .8.8 1.1 1.6 1.1.7 0 1-.1 1.4-.3-.1-.9-.9-1.6-1.8-1.6zm8.5 5.3l-1.7-4.3h-.1l-1.8 4.3h-1.6l2.7-6.1L103 13h1.6l4.1 9.4H107zM93.5 16H95v10h-1.5V16z"/><g id="g48"><linearGradient id="path64_1_" gradientUnits="userSpaceOnUse" x1="32.745" y1="157.177" x2="15.962" y2="140.395" gradientTransform="matrix(1.0024 0 0 -.9907 -7.384 170.687)"><stop offset="0" stop-color="#00a0ff"/><stop offset=".007" stop-color="#00a1ff"/><stop offset=".26" stop-color="#00beff"/><stop offset=".512" stop-color="#00d2ff"/><stop offset=".76" stop-color="#00dfff"/><stop offset="1" stop-color="#00e3ff"/></linearGradient><path id="path64" d="M16.3 34c-.2-.2-.4-.6-.4-1.1V15.2c0-.5.1-.9.4-1.1l.1-.1 9.9 9.9v.2l-10 9.9z" fill="url(#path64_1_)"/></g><g id="g66"><linearGradient id="path78_1_" gradientUnits="userSpaceOnUse" x1="42.35" y1="148.06" x2="18.153" y2="148.06" gradientTransform="matrix(1.0024 0 0 -.9907 -7.384 170.687)"><stop offset="0" stop-color="#ffe000"/><stop offset=".409" stop-color="#ffbd00"/><stop offset=".775" stop-color="orange"/><stop offset="1" stop-color="#ff9c00"/></linearGradient><path id="path78" d="M29.6 20.6l-3.3 3.3v.2l3.3 3.3h.1l3.9-2.2c1.1-.6 1.1-1.7 0-2.3l-4-2.3c.1 0 0 0 0 0z" fill="url(#path78_1_)"/></g><g id="g80"><linearGradient id="path88_1_" gradientUnits="userSpaceOnUse" x1="28.502" y1="152.944" x2="5.744" y2="130.185" gradientTransform="matrix(1.0024 0 0 -.9907 -7.384 170.687)"><stop offset="0" stop-color="#ff3a44"/><stop offset="1" stop-color="#c31162"/></linearGradient><path id="path88" d="M29.7 20.6L26.3 24l-10-10c.4-.4 1-.4 1.7 0l11.7 6.6" fill="url(#path88_1_)"/></g><g id="g90"><linearGradient id="path104_1_" gradientUnits="userSpaceOnUse" x1="14.513" y1="157.331" x2="24.676" y2="147.168" gradientTransform="matrix(1.0024 0 0 -.9907 -7.384 170.687)"><stop offset="0" stop-color="#32a071"/><stop offset=".069" stop-color="#2da771"/><stop offset=".476" stop-color="#15cf74"/><stop offset=".801" stop-color="#06e775"/><stop offset="1" stop-color="#00f076"/></linearGradient><path id="path104" d="M29.7 27.4L18 34c-.7.4-1.3.3-1.7-.1l10-10 3.4 3.5z" fill="url(#path104_1_)"/></g><g id="g106"><defs><filter id="Adobe_OpacityMaskFilter" filterUnits="userSpaceOnUse" x="0" y="-48" width="124" height="48"><feColorMatrix values="1 0 0 0 0 0 1 0 0 0 0 0 1 0 0 0 0 0 1 0"/></filter></defs><mask maskUnits="userSpaceOnUse" x="0" y="-48" width="124" height="48" id="mask114_1_"><g id="g116_1_" filter="url(#Adobe_OpacityMaskFilter)"><defs><path id="SVGID_9_" d="M-4.7-3.1h124v48h-124z"/></defs><clipPath id="SVGID_10_"><use xlink:href="#SVGID_9_" overflow="visible"/></clipPath><g id="g118_1_"><path id="path120_1_" d="M7.8 40.3h99V1.5h-99v38.8z" clip-path="url(#SVGID_10_)" fill-opacity=".2"/></g></g></mask><g id="g122" mask="url(#mask114_1_)"><g id="g146"><defs><path id="SVGID_11_" d="M-15.7-5.7h155.4v59.4H-15.7z"/></defs><clipPath id="SVGID_12_"><use xlink:href="#SVGID_11_" overflow="visible"/></clipPath><g id="g148" clip-path="url(#SVGID_12_)"><g id="g150"><pattern id="path152_1_" xlink:href="#pattern134" patternTransform="matrix(1.253 0 0 -1.2384 2126.874 -17667.156)"/><path id="path152" d="M0 0h124v48H0V0z" fill="url(#path152_1_)"/></g></g></g></g></g><g id="g154"><defs><filter id="Adobe_OpacityMaskFilter_1_" filterUnits="userSpaceOnUse" x="0" y="-48" width="124" height="48"><feColorMatrix values="1 0 0 0 0 0 1 0 0 0 0 0 1 0 0 0 0 0 1 0"/></filter></defs><mask maskUnits="userSpaceOnUse" x="0" y="-48" width="124" height="48" id="mask162_1_"><g id="g164_1_" filter="url(#Adobe_OpacityMaskFilter_1_)"><defs><path id="SVGID_13_" d="M-4.7-3.1h124v48h-124z"/></defs><clipPath id="SVGID_14_"><use xlink:href="#SVGID_13_" overflow="visible"/></clipPath><g id="g166_1_"><path id="path168_1_" d="M7.8 40.3h99V1.5h-99v38.8z" clip-path="url(#SVGID_14_)" fill-opacity=".12"/></g></g></mask><g id="g170" mask="url(#mask162_1_)"><g id="g194"><defs><path id="SVGID_15_" d="M-15.7-5.7h155.4v59.4H-15.7z"/></defs><clipPath id="SVGID_16_"><use xlink:href="#SVGID_15_" overflow="visible"/></clipPath><g id="g196" clip-path="url(#SVGID_16_)"><g id="g198"><pattern id="path200_1_" xlink:href="#pattern182" patternTransform="matrix(1.253 0 0 -1.2384 2126.874 -17667.156)"/><path id="path200" d="M0 0h124v48H0V0z" fill="url(#path200_1_)"/></g></g></g></g></g><g id="g202"><defs><filter id="Adobe_OpacityMaskFilter_2_" filterUnits="userSpaceOnUse" x="0" y="-48" width="124" height="48"><feColorMatrix values="1 0 0 0 0 0 1 0 0 0 0 0 1 0 0 0 0 0 1 0"/></filter></defs><mask maskUnits="userSpaceOnUse" x="0" y="-48" width="124" height="48" id="mask210_1_"><g id="g212_1_" filter="url(#Adobe_OpacityMaskFilter_2_)"><defs><path id="SVGID_17_" d="M-4.7-3.1h124v48h-124z"/></defs><clipPath id="SVGID_18_"><use xlink:href="#SVGID_17_" overflow="visible"/></clipPath><g id="g214_1_"><path id="path216_1_" d="M7.8 40.3h99V1.5h-99v38.8z" clip-path="url(#SVGID_18_)" fill-opacity=".12"/></g></g></mask><g id="g218" mask="url(#mask210_1_)"><g id="g242"><defs><path id="SVGID_19_" d="M-15.7-5.7h155.4v59.4H-15.7z"/></defs><clipPath id="SVGID_20_"><use xlink:href="#SVGID_19_" overflow="visible"/></clipPath><g id="g244" clip-path="url(#SVGID_20_)"><g id="g246"><pattern id="path248_1_" xlink:href="#pattern230" patternTransform="matrix(1.253 0 0 -1.2384 2126.874 -17667.156)"/><path id="path248" d="M0 0h124v48H0V0z" fill="url(#path248_1_)"/></g></g></g></g></g><g id="g250"><defs><filter id="Adobe_OpacityMaskFilter_3_" filterUnits="userSpaceOnUse" x="0" y="-48" width="124" height="48"><feColorMatrix values="1 0 0 0 0 0 1 0 0 0 0 0 1 0 0 0 0 0 1 0"/></filter></defs><mask maskUnits="userSpaceOnUse" x="0" y="-48" width="124" height="48" id="mask258_1_"><g id="g260_1_" filter="url(#Adobe_OpacityMaskFilter_3_)"><defs><path id="SVGID_21_" d="M-4.7-3.1h124v48h-124z"/></defs><clipPath id="SVGID_22_"><use xlink:href="#SVGID_21_" overflow="visible"/></clipPath><g id="g262_1_"><path id="path264_1_" d="M7.8 40.3h99V1.5h-99v38.8z" clip-path="url(#SVGID_22_)" fill-opacity=".25"/></g></g></mask><g id="g266" mask="url(#mask258_1_)"><g id="g290"><defs><path id="SVGID_23_" d="M-15.7-5.7h155.4v59.4H-15.7z"/></defs><clipPath id="SVGID_24_"><use xlink:href="#SVGID_23_" overflow="visible"/></clipPath><g id="g292" clip-path="url(#SVGID_24_)"><g id="g294"><pattern id="path296_1_" xlink:href="#pattern278" patternTransform="matrix(1.253 0 0 -1.2384 2126.874 -17667.156)"/><path id="path296" d="M0 0h124v48H0V0z" fill="url(#path296_1_)"/></g></g></g></g></g></g></g></svg>