<!DOCTYPE svg PUBLIC "-//W3C//DTD SVG 20010904//EN" "http://www.w3.org/TR/2001/REC-SVG-20010904/DTD/svg10.dtd">
<svg version="1.0" xmlns="http://www.w3.org/2000/svg" width="120px" height="46px" viewBox="0 0 1200 460" preserveAspectRatio="xMidYMid meet">
<g id="layer101" fill="#3ae98a" stroke="none">
 <path d="M120 448 c1 -47 49 -301 59 -311 6 -6 45 -13 85 -15 65 -4 77 -1 95 17 24 24 28 76 10 146 -15 60 -47 87 -108 93 -49 4 -50 5 -56 43 -7 38 -8 39 -46 39 -25 0 -39 -5 -39 -12z m160 -153 c6 -8 14 -31 17 -53 9 -70 -51 -83 -62 -14 -4 21 -8 47 -11 60 -4 18 0 22 20 22 13 0 29 -7 36 -15z"/>
 <path d="M780 454 c0 -3 12 -27 27 -54 l26 -47 -31 -117 -30 -116 43 0 44 0 12 62 12 62 31 -62 c29 -60 32 -62 68 -62 21 0 38 5 38 10 0 6 -36 82 -80 170 l-80 160 -40 0 c-22 0 -40 -3 -40 -6z"/>
 <path d="M400 366 c-6 -17 -3 -66 11 -153 30 -197 24 -183 70 -183 39 0 40 0 35 33 -3 17 -13 73 -21 122 -8 50 -15 109 -15 132 0 37 -4 45 -30 58 -38 20 -39 19 -50 -9z"/>
 <path d="M0 355 c0 -23 35 -255 45 -302 5 -19 12 -23 45 -23 22 0 40 3 40 8 0 4 -12 82 -26 175 l-27 167 -38 0 c-35 0 -39 -3 -39 -25z"/>
 <path d="M542 363 c-22 -19 -25 -30 -23 -74 2 -44 30 -69 86 -77 64 -9 60 -28 -5 -24 -49 3 -50 3 -50 -26 0 -18 6 -32 16 -36 26 -10 134 -7 155 4 23 13 25 67 8 166 l-11 62 -43 11 c-63 16 -110 14 -133 -6z m110 -78 c4 -19 1 -25 -13 -25 -21 0 -51 28 -44 41 4 5 17 9 29 9 17 0 25 -7 28 -25z"/>
 <path d="M860 80 c0 -5 8 -25 17 -45 15 -32 20 -35 60 -35 l43 0 -22 45 c-20 42 -25 45 -60 45 -21 0 -38 -4 -38 -10z"/>
 <path d="M970 80 c0 -5 8 -25 17 -45 15 -32 20 -35 60 -35 l43 0 -22 45 c-20 42 -25 45 -60 45 -21 0 -38 -4 -38 -10z"/>
 <path d="M1080 80 c0 -5 8 -25 17 -45 15 -31 21 -35 55 -35 43 0 45 5 21 55 -15 31 -21 35 -55 35 -21 0 -38 -4 -38 -10z"/>
 </g>
<g id="layer102" fill="#ffffff" stroke="none">
 <path d="M120 448 c1 -47 49 -301 59 -311 6 -6 45 -13 85 -15 65 -4 77 -1 95 17 24 24 28 76 10 146 -15 60 -47 87 -108 93 -49 4 -50 5 -56 43 -7 38 -8 39 -46 39 -25 0 -39 -5 -39 -12z m160 -153 c6 -8 14 -31 17 -53 9 -70 -51 -83 -62 -14 -4 21 -8 47 -11 60 -4 18 0 22 20 22 13 0 29 -7 36 -15z"/>
 <path d="M780 454 c0 -3 12 -27 27 -54 l26 -47 -31 -117 -30 -116 43 0 44 0 12 62 12 62 31 -62 c29 -60 32 -62 68 -62 21 0 38 5 38 10 0 6 -36 82 -80 170 l-80 160 -40 0 c-22 0 -40 -3 -40 -6z"/>
 <path d="M400 366 c-6 -17 -3 -66 11 -153 30 -197 24 -183 70 -183 39 0 40 0 35 33 -3 17 -13 73 -21 122 -8 50 -15 109 -15 132 0 37 -4 45 -30 58 -38 20 -39 19 -50 -9z"/>
 <path d="M0 355 c0 -23 35 -255 45 -302 5 -19 12 -23 45 -23 22 0 40 3 40 8 0 4 -12 82 -26 175 l-27 167 -38 0 c-35 0 -39 -3 -39 -25z"/>
 <path d="M542 363 c-22 -19 -25 -30 -23 -74 2 -44 30 -69 86 -77 64 -9 60 -28 -5 -24 -49 3 -50 3 -50 -26 0 -18 6 -32 16 -36 26 -10 134 -7 155 4 23 13 25 67 8 166 l-11 62 -43 11 c-63 16 -110 14 -133 -6z m110 -78 c4 -19 1 -25 -13 -25 -21 0 -51 28 -44 41 4 5 17 9 29 9 17 0 25 -7 28 -25z"/>
 <path d="M1023 3 c15 -2 37 -2 50 0 12 2 0 4 -28 4 -27 0 -38 -2 -22 -4z"/>
 <path d="M1128 3 c12 -2 32 -2 45 0 12 2 2 4 -23 4 -25 0 -35 -2 -22 -4z"/>
 </g>

</svg>