<?xml version="1.0" encoding="utf-8"?>
<!-- Generator: Adobe Illustrator 21.1.0, SVG Export Plug-In . SVG Version: 6.00 Build 0)  -->
<svg version="1.1" id="Layer_1" xmlns="http://www.w3.org/2000/svg" xmlns:xlink="http://www.w3.org/1999/xlink" x="0px" y="0px"
	 viewBox="0 0 252.4 95.8" style="enable-background:new 0 0 252.4 95.8;" xml:space="preserve">
<style type="text/css">
	.st0{fill:#00FF7B;}
	.st1{fill:#169C3F;}
	.st2{fill:#075220;}
	.st3{display:none;}
	.st4{display:inline;fill:#010900;}
	.st5{fill:#FFFFFF;}
</style>
<g>
	<g>
		<polygon class="st0" points="240.9,19.4 227,19.4 235.2,3.1 249.1,3.1 		"/>
	</g>
	<g>
		<polygon class="st1" points="218.8,19.4 205,19.4 213.1,3.1 227,3.1 		"/>
	</g>
	<g>
		<polygon class="st2" points="196.8,19.4 182.9,19.4 191.1,3.1 205,3.1 		"/>
	</g>
</g>
<g class="st3">
	<path class="st4" d="M3.5,105.4c0,0.3-0.1,0.5-0.1,0.8c0,0.2,0,0.4,0.1,0.6c0.1,0.2,0.2,0.3,0.3,0.4c0.2,0.1,0.4,0.1,0.6,0.1
		c0.3,0,0.5,0,0.7-0.1s0.3-0.2,0.5-0.4c0.1-0.2,0.2-0.4,0.3-0.6c0.1-0.2,0.1-0.5,0.2-0.8l1.2-7.6h2.2l-1.2,7.6
		c-0.1,0.7-0.3,1.3-0.6,1.7c-0.3,0.5-0.6,0.8-1,1.1c-0.4,0.3-0.8,0.4-1.2,0.5c-0.4,0.1-0.9,0.1-1.3,0.1c-0.4,0-0.9,0-1.3-0.1
		c-0.4-0.1-0.8-0.2-1-0.5c-0.3-0.3-0.5-0.6-0.6-1.1c-0.1-0.5-0.1-1.1,0-1.8l1.2-7.6h2.2L3.5,105.4z"/>
	<path class="st4" d="M14.9,105.3L14.9,105.3l1.2-7.5h2l-1.7,10.9h-2.5l-1.5-7.7h0l-1.2,7.7h-2l1.7-10.9h2.5L14.9,105.3z"/>
	<path class="st4" d="M19.7,97.8H22l-1.7,10.9H18L19.7,97.8z"/>
	<path class="st4" d="M29.7,99.6h-2.4l-1.4,9.1h-2.2l1.4-9.1h-2.4l0.3-1.8h7L29.7,99.6z"/>
	<path class="st4" d="M31.1,97.8h2.2l-1.7,10.9h-2.2L31.1,97.8z"/>
	<path class="st4" d="M38.9,105.3L38.9,105.3l1.2-7.5h2l-1.7,10.9h-2.5l-1.5-7.7h0l-1.2,7.7h-2l1.7-10.9h2.5L38.9,105.3z"/>
	<path class="st4" d="M48.1,100.4c0-0.2-0.1-0.4-0.1-0.6c-0.1-0.2-0.2-0.3-0.3-0.4c-0.1-0.1-0.3-0.2-0.5-0.2c-0.5,0-1,0.3-1.3,0.9
		c-0.3,0.6-0.6,1.6-0.8,2.9c-0.1,0.7-0.2,1.2-0.2,1.8c0,0.5,0,1,0,1.4c0,0.4,0.2,0.7,0.3,0.9c0.2,0.2,0.4,0.3,0.7,0.3
		c0.1,0,0.3,0,0.5-0.1c0.2-0.1,0.3-0.2,0.5-0.3s0.3-0.3,0.4-0.5c0.1-0.2,0.2-0.5,0.3-0.8l0.2-1.1h-1.5l0.3-1.6H50l-0.9,5.9h-1.6
		l0.2-1h0c-0.3,0.4-0.7,0.7-1.1,0.9c-0.4,0.2-0.9,0.3-1.4,0.3c-0.7,0-1.2-0.1-1.6-0.4c-0.4-0.2-0.7-0.6-0.8-1.1
		c-0.2-0.5-0.2-1.1-0.2-1.8s0.1-1.6,0.3-2.5c0.1-0.9,0.3-1.7,0.6-2.4c0.2-0.7,0.5-1.3,0.9-1.7c0.4-0.5,0.8-0.8,1.3-1
		c0.5-0.2,1.1-0.4,1.8-0.4c1.2,0,2,0.3,2.5,0.9c0.4,0.6,0.6,1.5,0.4,2.6H48C48.1,100.8,48.1,100.6,48.1,100.4z"/>
	<path class="st4" d="M61.4,99.6H59l-1.4,9.1h-2.2l1.4-9.1h-2.4l0.3-1.8h7L61.4,99.6z"/>
	<path class="st4" d="M64.9,97.8l-0.7,4.2h2.6l0.7-4.2h2.2l-1.7,10.9h-2.2l0.8-4.9h-2.6l-0.8,4.9h-2.2l1.7-10.9H64.9z"/>
	<path class="st4" d="M77,99.6h-3.9l-0.4,2.6h3.7l-0.3,1.8h-3.7l-0.5,2.9H76l-0.3,1.8h-6.3l1.7-10.9h6.1L77,99.6z"/>
	<path class="st4" d="M83.1,97.8l-0.1,8.1h0l2.6-8.1h2.1l0,8.1h0l2.5-8.1h2.1l-3.7,10.9h-2.5l0-7.9h0l-2.5,7.9h-2.5L81,97.8H83.1z"
		/>
	<path class="st4" d="M92.7,101c0.2-0.7,0.5-1.3,0.8-1.8c0.3-0.5,0.8-0.9,1.3-1.2c0.5-0.3,1.2-0.4,2-0.4c0.8,0,1.5,0.1,1.9,0.4
		c0.4,0.3,0.8,0.7,0.9,1.2c0.2,0.5,0.3,1.1,0.2,1.8c0,0.7-0.1,1.5-0.2,2.3c-0.1,0.8-0.3,1.6-0.5,2.3c-0.2,0.7-0.4,1.3-0.8,1.8
		c-0.3,0.5-0.8,0.9-1.3,1.1c-0.5,0.3-1.2,0.4-2,0.4c-0.8,0-1.5-0.1-1.9-0.4c-0.4-0.3-0.8-0.6-0.9-1.1c-0.2-0.5-0.3-1.1-0.2-1.8
		c0-0.7,0.1-1.5,0.2-2.3C92.3,102.4,92.5,101.7,92.7,101z M94.2,105.1c0,0.5,0,0.9,0,1.3c0.1,0.3,0.2,0.6,0.3,0.7
		c0.2,0.1,0.4,0.2,0.8,0.2c0.3,0,0.6-0.1,0.8-0.2c0.2-0.1,0.4-0.4,0.6-0.7c0.2-0.3,0.3-0.7,0.4-1.3c0.1-0.5,0.2-1.1,0.4-1.9
		c0.1-0.7,0.2-1.4,0.2-1.9c0-0.5,0-0.9,0-1.3c-0.1-0.3-0.2-0.6-0.3-0.7c-0.2-0.1-0.4-0.2-0.8-0.2c-0.3,0-0.6,0.1-0.8,0.2
		c-0.2,0.1-0.4,0.4-0.6,0.7c-0.2,0.3-0.3,0.7-0.4,1.3c-0.1,0.5-0.2,1.1-0.3,1.9C94.3,104,94.2,104.6,94.2,105.1z"/>
	<path class="st4" d="M105.9,97.8c0.9,0,1.6,0.2,2,0.7c0.4,0.5,0.6,1.2,0.4,2.1c-0.1,0.7-0.4,1.3-0.7,1.8c-0.4,0.5-0.9,0.8-1.5,0.9
		l0,0c0.5,0.1,0.9,0.3,1.1,0.5c0.2,0.3,0.3,0.7,0.3,1.3c0,0.2,0,0.4-0.1,0.7c0,0.2-0.1,0.5-0.1,0.8c-0.1,0.6-0.1,1-0.1,1.3
		c0,0.3,0.1,0.5,0.3,0.6l0,0.1h-2.4c-0.1-0.2-0.1-0.3-0.1-0.5c0-0.2,0-0.4,0-0.6l0.3-2.1c0-0.4,0-0.8-0.2-1s-0.5-0.4-0.9-0.4H103
		l-0.7,4.6h-2.2l1.7-10.9H105.9z M104.2,102.6c0.5,0,1-0.1,1.3-0.4c0.3-0.3,0.5-0.7,0.6-1.3c0.2-1-0.3-1.5-1.3-1.5h-1l-0.5,3.2
		H104.2z"/>
	<path class="st4" d="M110.3,97.8h2.2l-1.4,9.1h3.9l-0.3,1.8h-6.1L110.3,97.8z"/>
	<path class="st4" d="M121.1,97.8c0.8,0,1.4,0.1,1.8,0.4c0.4,0.2,0.7,0.6,0.9,1.1c0.2,0.5,0.3,1,0.3,1.7c0,0.7-0.1,1.4-0.2,2.2
		c-0.2,1-0.3,1.8-0.6,2.5c-0.2,0.7-0.5,1.3-0.9,1.8c-0.4,0.5-0.8,0.8-1.3,1s-1.1,0.3-1.9,0.3h-3.5l1.7-10.9H121.1z M119.2,107.1
		c0.4,0,0.7-0.1,1-0.2c0.3-0.1,0.5-0.4,0.7-0.7c0.2-0.3,0.3-0.7,0.5-1.2c0.1-0.5,0.2-1.1,0.4-1.9c0.1-0.6,0.2-1.2,0.2-1.6
		s0-0.9-0.1-1.2c-0.1-0.3-0.2-0.5-0.5-0.7c-0.2-0.2-0.5-0.2-1-0.2h-0.9l-1.2,7.7H119.2z"/>
	<path class="st4" d="M129.3,101c0.2-0.7,0.5-1.3,0.8-1.8c0.3-0.5,0.8-0.9,1.3-1.2c0.5-0.3,1.2-0.4,2-0.4c0.8,0,1.5,0.1,1.9,0.4
		c0.4,0.3,0.8,0.7,0.9,1.2c0.2,0.5,0.3,1.1,0.2,1.8c0,0.7-0.1,1.5-0.2,2.3c-0.1,0.8-0.3,1.6-0.5,2.3c-0.2,0.7-0.4,1.3-0.8,1.8
		c-0.3,0.5-0.8,0.9-1.3,1.1c-0.5,0.3-1.2,0.4-2,0.4c-0.8,0-1.5-0.1-1.9-0.4c-0.4-0.3-0.8-0.6-0.9-1.1c-0.2-0.5-0.3-1.1-0.2-1.8
		c0-0.7,0.1-1.5,0.2-2.3C128.9,102.4,129.1,101.7,129.3,101z M130.8,105.1c0,0.5,0,0.9,0,1.3c0.1,0.3,0.2,0.6,0.3,0.7
		c0.2,0.1,0.4,0.2,0.8,0.2c0.3,0,0.6-0.1,0.8-0.2c0.2-0.1,0.4-0.4,0.6-0.7c0.2-0.3,0.3-0.7,0.4-1.3c0.1-0.5,0.2-1.1,0.4-1.9
		c0.1-0.7,0.2-1.4,0.2-1.9c0-0.5,0-0.9,0-1.3c-0.1-0.3-0.2-0.6-0.3-0.7c-0.2-0.1-0.4-0.2-0.8-0.2c-0.3,0-0.6,0.1-0.8,0.2
		c-0.2,0.1-0.4,0.4-0.6,0.7c-0.2,0.3-0.3,0.7-0.4,1.3c-0.1,0.5-0.2,1.1-0.4,1.9C130.9,104,130.8,104.6,130.8,105.1z"/>
	<path class="st4" d="M144.5,97.8l-0.3,1.8h-3.9l-0.4,2.6h3.7l-0.3,1.8h-3.7l-0.8,4.7h-2.2l1.7-10.9H144.5z"/>
	<path class="st4" d="M149.7,105.6c0,0.3-0.1,0.5,0,0.7c0,0.2,0.1,0.4,0.1,0.5c0.1,0.1,0.2,0.3,0.4,0.3c0.2,0.1,0.4,0.1,0.7,0.1
		c0.3,0,0.7-0.1,1-0.3c0.3-0.2,0.5-0.6,0.6-1c0-0.2,0-0.5,0-0.6c0-0.2-0.1-0.3-0.3-0.5c-0.1-0.1-0.3-0.3-0.5-0.4
		c-0.2-0.1-0.5-0.2-0.9-0.4c-0.5-0.2-0.9-0.3-1.2-0.5c-0.3-0.2-0.6-0.4-0.8-0.7c-0.2-0.3-0.3-0.6-0.4-0.9c-0.1-0.3-0.1-0.7,0-1.2
		c0.2-1.1,0.6-1.9,1.3-2.4c0.7-0.5,1.6-0.8,2.6-0.8c0.5,0,0.9,0.1,1.3,0.2c0.4,0.1,0.7,0.3,1,0.5c0.3,0.2,0.4,0.5,0.6,0.9
		c0.1,0.4,0.1,0.8,0,1.3l0,0.3h-2.1c0.1-0.5,0.1-0.9-0.1-1.2c-0.1-0.3-0.4-0.4-0.9-0.4c-0.2,0-0.5,0-0.6,0.1
		c-0.2,0.1-0.3,0.2-0.4,0.3c-0.1,0.1-0.2,0.3-0.3,0.4c-0.1,0.2-0.1,0.3-0.1,0.5c-0.1,0.3,0,0.6,0.1,0.8c0.1,0.2,0.4,0.4,0.8,0.6
		l1.6,0.7c0.4,0.2,0.7,0.4,0.9,0.6s0.4,0.4,0.5,0.6c0.1,0.2,0.2,0.5,0.2,0.8c0,0.3,0,0.6-0.1,0.9c-0.2,1.2-0.6,2-1.4,2.5
		c-0.8,0.5-1.7,0.8-2.9,0.8c-1.2,0-2.1-0.3-2.5-0.8c-0.5-0.5-0.6-1.3-0.4-2.3l0.1-0.4h2.2L149.7,105.6z"/>
	<path class="st4" d="M161,97.8c0.6,0,1,0.1,1.4,0.3c0.4,0.2,0.6,0.4,0.8,0.7c0.2,0.3,0.3,0.7,0.3,1c0,0.4,0,0.8,0,1.2
		c-0.1,0.6-0.3,1.1-0.5,1.5c-0.2,0.4-0.5,0.8-0.9,1c-0.3,0.3-0.7,0.5-1.2,0.6c-0.5,0.1-0.9,0.2-1.5,0.2h-1.2l-0.7,4.4h-2.2l1.7-10.9
		H161z M159.5,102.7c0.4,0,0.8-0.1,1.1-0.4c0.3-0.3,0.5-0.7,0.6-1.2c0.1-0.6,0-1-0.2-1.3c-0.2-0.3-0.6-0.4-1.1-0.4h-0.9l-0.5,3.3
		H159.5z"/>
	<path class="st4" d="M164.5,101c0.2-0.7,0.5-1.3,0.8-1.8c0.3-0.5,0.8-0.9,1.3-1.2c0.5-0.3,1.2-0.4,2-0.4c0.8,0,1.5,0.1,1.9,0.4
		c0.4,0.3,0.8,0.7,0.9,1.2c0.2,0.5,0.3,1.1,0.2,1.8c0,0.7-0.1,1.5-0.2,2.3c-0.1,0.8-0.3,1.6-0.5,2.3c-0.2,0.7-0.4,1.3-0.8,1.8
		c-0.3,0.5-0.8,0.9-1.3,1.1c-0.5,0.3-1.2,0.4-2,0.4c-0.8,0-1.5-0.1-1.9-0.4c-0.4-0.3-0.8-0.6-0.9-1.1c-0.2-0.5-0.3-1.1-0.2-1.8
		c0-0.7,0.1-1.5,0.2-2.3C164.1,102.4,164.3,101.7,164.5,101z M165.9,105.1c0,0.5,0,0.9,0,1.3c0.1,0.3,0.2,0.6,0.3,0.7
		c0.2,0.1,0.4,0.2,0.8,0.2c0.3,0,0.6-0.1,0.8-0.2c0.2-0.1,0.4-0.4,0.6-0.7c0.2-0.3,0.3-0.7,0.4-1.3c0.1-0.5,0.2-1.1,0.4-1.9
		c0.1-0.7,0.2-1.4,0.2-1.9c0-0.5,0-0.9,0-1.3c-0.1-0.3-0.2-0.6-0.3-0.7c-0.2-0.1-0.4-0.2-0.8-0.2c-0.3,0-0.6,0.1-0.8,0.2
		c-0.2,0.1-0.4,0.4-0.6,0.7c-0.2,0.3-0.3,0.7-0.4,1.3c-0.1,0.5-0.2,1.1-0.4,1.9C166.1,104,166,104.6,165.9,105.1z"/>
	<path class="st4" d="M177.7,97.8c0.9,0,1.6,0.2,2,0.7c0.4,0.5,0.6,1.2,0.4,2.1c-0.1,0.7-0.4,1.3-0.7,1.8c-0.4,0.5-0.9,0.8-1.5,0.9
		l0,0c0.5,0.1,0.9,0.3,1.1,0.5c0.2,0.3,0.3,0.7,0.3,1.3c0,0.2,0,0.4-0.1,0.7c0,0.2-0.1,0.5-0.1,0.8c-0.1,0.6-0.1,1-0.1,1.3
		c0,0.3,0.1,0.5,0.3,0.6l0,0.1h-2.4c-0.1-0.2-0.1-0.3-0.1-0.5c0-0.2,0-0.4,0-0.6l0.3-2.1c0-0.4,0-0.8-0.2-1
		c-0.2-0.2-0.5-0.4-0.9-0.4h-1.2l-0.7,4.6h-2.2l1.7-10.9H177.7z M176,102.6c0.5,0,1-0.1,1.3-0.4c0.3-0.3,0.5-0.7,0.6-1.3
		c0.2-1-0.3-1.5-1.3-1.5h-1l-0.5,3.2H176z"/>
	<path class="st4" d="M187.9,99.6h-2.4l-1.4,9.1h-2.2l1.4-9.1H181l0.3-1.8h7L187.9,99.6z"/>
</g>
<g>
	<g>
		<g>
			<polygon class="st5" points="216.4,27.7 184.3,93 169.9,93 180.8,71.8 169.1,27.7 184,27.7 190.1,53.4 202,27.7 			"/>
		</g>
	</g>
</g>
<g>
	<g>
		<path class="st5" d="M159.1,37.5c-1.2-7.1-4.5-10.5-9.7-10.5c-5.4,0-9.4,3-13.1,10.5l-21.1,42.8h-11.3c-5,0-6.6-0.9-6.6-4.2
			c0-0.9,0.1-2,0.3-3.4l7.2-45.6H89.9l-7.8,49.2c-0.2,1.6-0.4,3-0.4,4.3c0,11.7,9.8,12.3,20.5,12.3c1.8,0,4.5-0.1,7.5-0.2h14.8
			l6.6-14.8h19.9l2,14.8h15.8L159.1,37.5z M136.2,66.1l10.1-22.9l3,22.9H136.2z"/>
	</g>
</g>
<g>
	<g>
		<path class="st5" d="M41.3,91.5h-15l10.2-64.5c6.1-1.2,13.7-1.9,21.7-1.9c12.9,0,23.2,2.3,23.2,15.9c0,1.6-0.1,3.4-0.5,5.4
			C78.2,64.2,67.1,68,52.1,68c-2.3,0-5-0.1-6.9-0.2L41.3,91.5z M53.5,55.8c7.1,0,11.4-1.9,12.6-9.4c0.1-1,0.2-1.9,0.2-2.7
			c0-4.6-2.6-6.5-9.7-6.5c-2.1,0-4.5,0.1-6.8,0.5l-2.8,17.7C49.2,55.8,51.3,55.8,53.5,55.8z"/>
	</g>
</g>
<g>
	<polygon class="st5" points="28,25.8 13.8,25.8 11.6,39.7 11.6,39.7 3.4,91.3 17.6,91.3 	"/>
</g>
</svg>
