<?xml version="1.0" encoding="utf-8"?>
<!-- Generator: Adobe Illustrator 22.0.1, SVG Export Plug-In . SVG Version: 6.00 Build 0)  -->
<svg version="1.1" id="Layer_1" xmlns="http://www.w3.org/2000/svg" xmlns:xlink="http://www.w3.org/1999/xlink" x="0px" y="0px"
	 viewBox="0 0 52 52" style="enable-background:new 0 0 52 52;" xml:space="preserve">
<style type="text/css">
	.st0{fill:#FFFFFF;}
</style>
<g>
	<g>
		<path class="st0" d="M12.6,33.5c-0.3,0-0.5-0.1-0.7-0.3l-9.6-9.6C2.1,23.4,2,23,2,22.7c0.1-0.3,0.3-0.6,0.6-0.7l46-19.9
			c0.5-0.2,1,0,1.3,0.4s0.2,1-0.2,1.3L13.2,33.3C13.1,33.4,12.8,33.5,12.6,33.5z M4.7,23.2l7.9,7.9l30-24.4L4.7,23.2z"/>
	</g>
	<g>
		<path class="st0" d="M29.1,50c-0.3,0-0.5-0.1-0.7-0.3l-9.6-9.6c-0.4-0.4-0.4-0.9-0.1-1.3L48.2,2.4c0.3-0.4,0.9-0.5,1.3-0.2
			c0.4,0.3,0.6,0.8,0.4,1.3L30,49.4c-0.1,0.3-0.4,0.5-0.7,0.6C29.2,50,29.2,50,29.1,50z M20.8,39.3l7.9,7.9l16.4-38L20.8,39.3z"/>
	</g>
	<g>
		<path class="st0" d="M10.6,42.4c-0.3,0-0.5-0.1-0.7-0.3s-0.3-0.6-0.3-0.9l2.1-8.9c0.1-0.2,0.2-0.4,0.3-0.6L48.4,2.2
			c0.4-0.3,1-0.3,1.3,0.1s0.4,0.9,0.1,1.3L20.3,40c-0.1,0.2-0.3,0.3-0.6,0.3l-8.9,2.1C10.7,42.4,10.6,42.4,10.6,42.4z M13.5,33.1
			l-1.6,7l7-1.6L42.2,9.8L13.5,33.1z"/>
	</g>
</g>
</svg>
