<?xml version="1.0" encoding="utf-8"?>
<!-- Generator: Adobe Illustrator 22.0.1, SVG Export Plug-In . SVG Version: 6.00 Build 0)  -->
<svg version="1.1" id="Layer_1" xmlns="http://www.w3.org/2000/svg" xmlns:xlink="http://www.w3.org/1999/xlink" x="0px" y="0px"
	 viewBox="0 0 52 52" style="enable-background:new 0 0 52 52;" xml:space="preserve">
<style type="text/css">
	.st0{fill:#FFFFFF;}
</style>
<g>
	<g>
		<path class="st0" d="M43,50H10c-0.6,0-1-0.4-1-1s0.4-1,1-1h33c2.8,0,5-2.2,5-5V6c0-1.1-0.9-2-2-2H18c-1.1,0-2,0.9-2,2v37.1
			c0,0.6-0.4,1-1,1s-1-0.4-1-1V6c0-2.2,1.8-4,4-4h28c2.2,0,4,1.8,4,4v37C50,46.9,46.9,50,43,50z"/>
	</g>
	<g>
		<path class="st0" d="M9,50c-3.9,0-7-3.1-7-7V12c0-2.2,1.8-4,4-4h10v35C16,46.9,12.9,50,9,50z M6,10c-1.1,0-2,0.9-2,2v31
			c0,2.8,2.2,5,5,5s5-2.2,5-5V10H6z"/>
	</g>
	<g>
		<path class="st0" d="M29,19h-8c-0.6,0-1-0.4-1-1v-8c0-0.6,0.4-1,1-1h8c0.6,0,1,0.4,1,1v8C30,18.6,29.6,19,29,19z M22,17h6v-6h-6
			V17z"/>
	</g>
	<g>
		<path class="st0" d="M44,15H34c-0.6,0-1-0.4-1-1s0.4-1,1-1h10c0.6,0,1,0.4,1,1S44.6,15,44,15z"/>
	</g>
	<g>
		<path class="st0" d="M44,25H21c-0.6,0-1-0.4-1-1s0.4-1,1-1h23c0.6,0,1,0.4,1,1S44.6,25,44,25z"/>
	</g>
	<g>
		<path class="st0" d="M44,31H21c-0.6,0-1-0.4-1-1s0.4-1,1-1h23c0.6,0,1,0.4,1,1S44.6,31,44,31z"/>
	</g>
	<g>
		<path class="st0" d="M44,37H21c-0.6,0-1-0.4-1-1s0.4-1,1-1h23c0.6,0,1,0.4,1,1S44.6,37,44,37z"/>
	</g>
	<g>
		<path class="st0" d="M44,43H21c-0.6,0-1-0.4-1-1s0.4-1,1-1h23c0.6,0,1,0.4,1,1S44.6,43,44,43z"/>
	</g>
</g>
</svg>
