<svg xmlns="http://www.w3.org/2000/svg" xmlns:xlink="http://www.w3.org/1999/xlink" version="1.1" x="0px" y="0px" viewBox="0 0 52 52" style="enable-background:new 0 0 52 52;" xml:space="preserve"><style type="text/css">
	.st0{fill:#2A3D4F;}
	.st1{fill:none;stroke:#000000;stroke-width:2;stroke-miterlimit:10;}
</style><g><g><path d="M26,50c-3.3,0-6-2.7-6-6v-1h12v1C32,47.3,29.3,50,26,50z M22.1,45c0.4,1.7,2,3,3.9,3s3.4-1.3,3.9-3H22.1z"></path></g><g><path d="M29.3,8.4l-0.8-0.2c-1.7-0.3-3.4-0.3-5,0l-0.8,0.2l-0.3-0.7C22.1,7.2,22,6.6,22,6c0-2.2,1.8-4,4-4s4,1.8,4,4    c0,0.6-0.1,1.2-0.4,1.7L29.3,8.4z M26,6c0.7,0,1.3,0,2,0.1c0,0,0-0.1,0-0.1c0-1.1-0.9-2-2-2s-2,0.9-2,2c0,0,0,0.1,0,0.1    C24.7,6,25.3,6,26,6z"></path></g><g><path d="M44,40H8v-1.5L9.7,36c1.5-2.2,2.3-4.7,2.3-7.3V20c0-6.6,4.7-12.3,11.1-13.7c1.9-0.4,3.9-0.4,5.8,0c2.7,0.6,5.1,1.9,7,3.8    c2.6,2.6,4.1,6.1,4.1,9.9v8.7c0,2.5,0.7,5,2.1,7.1l1.9,2.8V40z M10.8,38h30.4l-0.7-1.1c-1.6-2.5-2.5-5.3-2.5-8.2V20    c0-3.2-1.2-6.2-3.5-8.5c-1.6-1.7-3.7-2.8-6-3.3c-1.7-0.3-3.3-0.3-5,0C18,9.4,14,14.4,14,20v8.6c0,3-0.9,5.9-2.6,8.4L10.8,38z"></path></g><g><path d="M44,45H8v-7h36V45z M10,43h32v-3H10V43z"></path></g><g><path d="M47,29.1c-0.3,0-0.5-0.1-0.7-0.3c-0.4-0.4-0.4-1,0-1.4c2.3-2.4,2.3-6.2,0-8.6c-0.4-0.4-0.4-1,0-1.4c0.4-0.4,1-0.4,1.4,0    c3,3.1,3,8.2,0,11.4C47.5,28.9,47.3,29.1,47,29.1z"></path></g><g><path d="M5,29.1c-0.3,0-0.5-0.1-0.7-0.3c-3-3.1-3-8.2,0-11.4c0.4-0.4,1-0.4,1.4,0c0.4,0.4,0.4,1,0,1.4c-2.3,2.4-2.3,6.2,0,8.6    c0.4,0.4,0.4,1,0,1.4C5.5,29,5.2,29.1,5,29.1z"></path></g></g></svg>