<?xml version="1.0" encoding="utf-8"?>
<!-- Generator: Adobe Illustrator 22.0.1, SVG Export Plug-In . SVG Version: 6.00 Build 0)  -->
<svg version="1.1" id="Layer_1" xmlns="http://www.w3.org/2000/svg" xmlns:xlink="http://www.w3.org/1999/xlink" x="0px" y="0px"
	 viewBox="0 0 52 52" style="enable-background:new 0 0 52 52;" xml:space="preserve">
<style type="text/css">
	.st0{fill:#FFFFFF;}
</style>
<g>
	<g>
		<path class="st0" d="M46,50H6c-2.2,0-4-1.8-4-4V12c0-2.2,1.8-4,4-4h40c2.2,0,4,1.8,4,4v34C50,48.2,48.2,50,46,50z M6,10
			c-1.1,0-2,0.9-2,2v34c0,1.1,0.9,2,2,2h40c1.1,0,2-0.9,2-2V12c0-1.1-0.9-2-2-2H6z"/>
	</g>
	<g>
		<rect x="19" y="32" class="st0" width="13.8" height="2"/>
	</g>
	<g>
		<path class="st0" d="M42.2,34h-2.8v-2h2.8c3.2,0,5.8-2.6,5.8-5.8V12c0-1.1-0.9-2-2-2H6c-1.1,0-2,0.9-2,2v14.2
			C4,29.4,6.6,32,9.8,32H13v2H9.8C5.5,34,2,30.5,2,26.2V12c0-2.2,1.8-4,4-4h40c2.2,0,4,1.8,4,4v14.2C50,30.5,46.5,34,42.2,34z"/>
	</g>
	<g>
		<path class="st0" d="M36,10H16V6c0-2.2,1.8-4,4-4h12c2.2,0,4,1.8,4,4V10z M18,8h16V6c0-1.1-0.9-2-2-2H20c-1.1,0-2,0.9-2,2V8z"/>
	</g>
	<g>
		<path class="st0" d="M18,38h-4c-1.1,0-2-0.9-2-2v-6c0-1.1,0.9-2,2-2h4c1.1,0,2,0.9,2,2v6C20,37.1,19.1,38,18,38z M14,30v6h4v-6H14
			z"/>
	</g>
	<g>
		<path class="st0" d="M38,38h-4c-1.1,0-2-0.9-2-2v-6c0-1.1,0.9-2,2-2h4c1.1,0,2,0.9,2,2v6C40,37.1,39.1,38,38,38z M34,30v6h4v-6H34
			z"/>
	</g>
</g>
</svg>
