<?xml version="1.0" encoding="utf-8"?>
<!-- Generator: Adobe Illustrator 22.0.1, SVG Export Plug-In . SVG Version: 6.00 Build 0)  -->
<svg version="1.1" id="Layer_1" xmlns="http://www.w3.org/2000/svg" xmlns:xlink="http://www.w3.org/1999/xlink" x="0px" y="0px"
	 viewBox="0 0 52 52" style="enable-background:new 0 0 52 52;" xml:space="preserve">
<style type="text/css">
	.st0{fill:#FFFFFF;}
</style>
<g>
	<g>
		<path class="st0" d="M31,50H5c-1.7,0-3-1.3-3-3V34h32v13C34,48.7,32.7,50,31,50z M4,36v11c0,0.6,0.4,1,1,1h26c0.6,0,1-0.4,1-1V36
			H4z"/>
	</g>
	<g>
		<path class="st0" d="M18,46c-2.2,0-4-1.8-4-4s1.8-4,4-4s4,1.8,4,4S20.2,46,18,46z M18,40c-1.1,0-2,0.9-2,2s0.9,2,2,2s2-0.9,2-2
			S19.1,40,18,40z"/>
	</g>
	<g>
		<path class="st0" d="M34,36H2V5c0-1.7,1.3-3,3-3h26c1.7,0,3,1.3,3,3v9h-2V5c0-0.6-0.4-1-1-1H5C4.4,4,4,4.4,4,5v29h28v-4h2V36z"/>
	</g>
	<g>
		<rect x="3" y="8" class="st0" width="30" height="2"/>
	</g>
	<g>
		<path class="st0" d="M46,37.1L38.6,31H24c-1.1,0-2-0.9-2-2V15c0-1.1,0.9-2,2-2h24c1.1,0,2,0.9,2,2v14c0,1.1-0.9,2-2,2h-2V37.1z
			 M24,15v14h15.4l4.6,3.9V29h4V15H24z"/>
	</g>
</g>
</svg>
