<svg xmlns="http://www.w3.org/2000/svg" xmlns:xlink="http://www.w3.org/1999/xlink" version="1.1" x="0px" y="0px" viewBox="0 0 52 52" style="enable-background:new 0 0 52 52;" xml:space="preserve"><style type="text/css">
	.st0{fill:#2A3D4F;}
	.st1{fill:none;stroke:#000000;stroke-width:2;stroke-miterlimit:10;}
</style><g><g><path d="M31,50H5c-1.7,0-3-1.3-3-3V34h32v13C34,48.7,32.7,50,31,50z M4,36v11c0,0.6,0.4,1,1,1h26c0.6,0,1-0.4,1-1V36H4z"></path></g><g><path d="M18,46c-2.2,0-4-1.8-4-4s1.8-4,4-4s4,1.8,4,4S20.2,46,18,46z M18,40c-1.1,0-2,0.9-2,2s0.9,2,2,2s2-0.9,2-2S19.1,40,18,40z    "></path></g><g><path d="M34,36H2V5c0-1.7,1.3-3,3-3h26c1.7,0,3,1.3,3,3v9h-2V5c0-0.6-0.4-1-1-1H5C4.4,4,4,4.4,4,5v29h28v-4h2V36z"></path></g><g><rect x="3" y="8" width="30" height="2"></rect></g><g><path d="M46,37.1L38.6,31H24c-1.1,0-2-0.9-2-2V15c0-1.1,0.9-2,2-2h24c1.1,0,2,0.9,2,2v14c0,1.1-0.9,2-2,2h-2V37.1z M24,15v14h15.4    l4.6,3.9V29h4V15H24z"></path></g></g></svg>