<?xml version="1.0" encoding="utf-8"?>
<!-- Generator: Adobe Illustrator 22.0.1, SVG Export Plug-In . SVG Version: 6.00 Build 0)  -->
<svg version="1.1" id="Layer_1" xmlns="http://www.w3.org/2000/svg" xmlns:xlink="http://www.w3.org/1999/xlink" x="0px" y="0px"
	 viewBox="0 0 52 52" style="enable-background:new 0 0 52 52;" xml:space="preserve">
<style type="text/css">
	.st0{fill:#FFFFFF;}
</style>
<g>
	<g>
		<path class="st0" d="M43,46c-0.1,0-0.2,0-0.3-0.1l-30-11C12.3,34.8,12,34.4,12,34V18c0-0.4,0.3-0.8,0.7-0.9l30-11
			C43,5.9,43.3,6,43.6,6.2C43.8,6.4,44,6.7,44,7v38c0,0.3-0.2,0.6-0.4,0.8C43.4,45.9,43.2,46,43,46z M14,33.3l28,10.3V8.4L14,18.7
			V33.3z"/>
	</g>
	<g>
		<path class="st0" d="M14,35H5c-1.7,0-3-1.3-3-3V20c0-1.7,1.3-3,3-3h9V35z M5,19c-0.6,0-1,0.4-1,1v12c0,0.6,0.4,1,1,1h7V19H5z"/>
	</g>
	<g>
		<path class="st0" d="M43,33h-1V19h1c3.9,0,7,3.1,7,7S46.9,33,43,33z M44,21.1v9.8c2.3-0.5,4-2.5,4-4.9S46.3,21.6,44,21.1z"/>
	</g>
	<g>
		<path class="st0" d="M7,23c-0.6,0-1-0.4-1-1v-4c0-0.6,0.4-1,1-1s1,0.4,1,1v4C8,22.6,7.6,23,7,23z"/>
	</g>
	<g>
		<path class="st0" d="M9,35c-0.6,0-1-0.4-1-1v-4c0-0.6,0.4-1,1-1s1,0.4,1,1v4C10,34.6,9.6,35,9,35z"/>
	</g>
</g>
</svg>
